<svg id="mermaid-svg" width="100%" xmlns="http://www.w3.org/2000/svg" class="erDiagram" style="max-width: 1020.25px;" viewBox="0 0 1020.25 501.75" role="graphics-document document" aria-roledescription="er" xmlns:xlink="http://www.w3.org/1999/xlink"><style xmlns="http://www.w3.org/1999/xhtml">@import url("https://cdnjs.cloudflare.com/ajax/libs/font-awesome/6.7.2/css/all.min.css");</style><style>#mermaid-svg{font-family:"trebuchet ms",verdana,arial,sans-serif;font-size:16px;fill:#333;}@keyframes edge-animation-frame{from{stroke-dashoffset:0;}}@keyframes dash{to{stroke-dashoffset:0;}}#mermaid-svg .edge-animation-slow{stroke-dasharray:9,5!important;stroke-dashoffset:900;animation:dash 50s linear infinite;stroke-linecap:round;}#mermaid-svg .edge-animation-fast{stroke-dasharray:9,5!important;stroke-dashoffset:900;animation:dash 20s linear infinite;stroke-linecap:round;}#mermaid-svg .error-icon{fill:#552222;}#mermaid-svg .error-text{fill:#552222;stroke:#552222;}#mermaid-svg .edge-thickness-normal{stroke-width:1px;}#mermaid-svg .edge-thickness-thick{stroke-width:3.5px;}#mermaid-svg .edge-pattern-solid{stroke-dasharray:0;}#mermaid-svg .edge-thickness-invisible{stroke-width:0;fill:none;}#mermaid-svg .edge-pattern-dashed{stroke-dasharray:3;}#mermaid-svg .edge-pattern-dotted{stroke-dasharray:2;}#mermaid-svg .marker{fill:#333333;stroke:#333333;}#mermaid-svg .marker.cross{stroke:#333333;}#mermaid-svg svg{font-family:"trebuchet ms",verdana,arial,sans-serif;font-size:16px;}#mermaid-svg p{margin:0;}#mermaid-svg .entityBox{fill:#ECECFF;stroke:#9370DB;}#mermaid-svg .relationshipLabelBox{fill:hsl(80, 100%, 96.2745098039%);opacity:0.7;background-color:hsl(80, 100%, 96.2745098039%);}#mermaid-svg .relationshipLabelBox rect{opacity:0.5;}#mermaid-svg .labelBkg{background-color:rgba(248.6666666666, 255, 235.9999999999, 0.5);}#mermaid-svg .edgeLabel .label{fill:#9370DB;font-size:14px;}#mermaid-svg .label{font-family:"trebuchet ms",verdana,arial,sans-serif;color:#333;}#mermaid-svg .edge-pattern-dashed{stroke-dasharray:8,8;}#mermaid-svg .node rect,#mermaid-svg .node circle,#mermaid-svg .node ellipse,#mermaid-svg .node polygon{fill:#ECECFF;stroke:#9370DB;stroke-width:1px;}#mermaid-svg .relationshipLine{stroke:#333333;stroke-width:1;fill:none;}#mermaid-svg .marker{fill:none!important;stroke:#333333!important;stroke-width:1;}#mermaid-svg :root{--mermaid-font-family:"trebuchet ms",verdana,arial,sans-serif;}</style><g><defs><marker id="mermaid-svg_er-onlyOneStart" class="marker onlyOne er" refX="0" refY="9" markerWidth="18" markerHeight="18" orient="auto"><path d="M9,0 L9,18 M15,0 L15,18"/></marker></defs><defs><marker id="mermaid-svg_er-onlyOneEnd" class="marker onlyOne er" refX="18" refY="9" markerWidth="18" markerHeight="18" orient="auto"><path d="M3,0 L3,18 M9,0 L9,18"/></marker></defs><defs><marker id="mermaid-svg_er-zeroOrOneStart" class="marker zeroOrOne er" refX="0" refY="9" markerWidth="30" markerHeight="18" orient="auto"><circle fill="white" cx="21" cy="9" r="6"/><path d="M9,0 L9,18"/></marker></defs><defs><marker id="mermaid-svg_er-zeroOrOneEnd" class="marker zeroOrOne er" refX="30" refY="9" markerWidth="30" markerHeight="18" orient="auto"><circle fill="white" cx="9" cy="9" r="6"/><path d="M21,0 L21,18"/></marker></defs><defs><marker id="mermaid-svg_er-oneOrMoreStart" class="marker oneOrMore er" refX="18" refY="18" markerWidth="45" markerHeight="36" orient="auto"><path d="M0,18 Q 18,0 36,18 Q 18,36 0,18 M42,9 L42,27"/></marker></defs><defs><marker id="mermaid-svg_er-oneOrMoreEnd" class="marker oneOrMore er" refX="27" refY="18" markerWidth="45" markerHeight="36" orient="auto"><path d="M3,9 L3,27 M9,18 Q27,0 45,18 Q27,36 9,18"/></marker></defs><defs><marker id="mermaid-svg_er-zeroOrMoreStart" class="marker zeroOrMore er" refX="18" refY="18" markerWidth="57" markerHeight="36" orient="auto"><circle fill="white" cx="48" cy="18" r="6"/><path d="M0,18 Q18,0 36,18 Q18,36 0,18"/></marker></defs><defs><marker id="mermaid-svg_er-zeroOrMoreEnd" class="marker zeroOrMore er" refX="39" refY="18" markerWidth="57" markerHeight="36" orient="auto"><circle fill="white" cx="9" cy="18" r="6"/><path d="M21,18 Q39,0 57,18 Q39,36 21,18"/></marker></defs><g class="root"><g class="clusters"/><g class="edgePaths"><path d="M219.406,179L219.406,187.417C219.406,195.833,219.406,212.667,234.705,229.5C250.004,246.333,280.603,263.167,295.902,271.583L311.201,280" id="id_entity-SOURCE-0_entity-PLUME-1_0" class=" edge-thickness-normal edge-pattern-solid relationshipLine" style="undefined;;;undefined" data-edge="true" data-et="edge" data-id="id_entity-SOURCE-0_entity-PLUME-1_0" data-points="W3sieCI6MjE5LjQwNjI1LCJ5IjoxNzl9LHsieCI6MjE5LjQwNjI1LCJ5IjoyMjkuNX0seyJ4IjozMTEuMjAwNzI5NzQ1ODMsInkiOjI4MH1d" marker-start="url(#mermaid-svg_er-onlyOneStart)" marker-end="url(#mermaid-svg_er-zeroOrMoreEnd)"/><path d="M791.531,179L791.531,187.417C791.531,195.833,791.531,212.667,776.232,229.5C760.933,246.333,730.335,263.167,715.036,271.583L699.737,280" id="id_entity-TILE-2_entity-PLUME-1_1" class=" edge-thickness-normal edge-pattern-solid relationshipLine" style="undefined;;;undefined" data-edge="true" data-et="edge" data-id="id_entity-TILE-2_entity-PLUME-1_1" data-points="W3sieCI6NzkxLjUzMTI1LCJ5IjoxNzl9LHsieCI6NzkxLjUzMTI1LCJ5IjoyMjkuNX0seyJ4Ijo2OTkuNzM2NzcwMjU0MTcsInkiOjI4MH1d" marker-start="url(#mermaid-svg_er-onlyOneStart)" marker-end="url(#mermaid-svg_er-zeroOrMoreEnd)"/></g><g class="edgeLabels"><g class="edgeLabel" transform="translate(219.40625, 229.5)"><g class="label" data-id="id_entity-SOURCE-0_entity-PLUME-1_0" transform="translate(-24.1171875, -10.5)"><foreignObject width="48.234375" height="21"><div xmlns="http://www.w3.org/1999/xhtml" class="labelBkg" style="display: table-cell; white-space: nowrap; line-height: 1.5; max-width: 200px; text-align: center;"><span class="edgeLabel "><p>clusters</p></span></div></foreignObject></g></g><g class="edgeLabel" transform="translate(791.53125, 229.5)"><g class="label" data-id="id_entity-TILE-2_entity-PLUME-1_1" transform="translate(-26.078125, -10.5)"><foreignObject width="52.15625" height="21"><div xmlns="http://www.w3.org/1999/xhtml" class="labelBkg" style="display: table-cell; white-space: nowrap; line-height: 1.5; max-width: 200px; text-align: center;"><span class="edgeLabel "><p>contains</p></span></div></foreignObject></g></g></g><g class="nodes"><g class="node default " id="entity-SOURCE-0" transform="translate(219.40625, 93.5)"><g style=""><path d="M-211.40625 -85.5 L211.40625 -85.5 L211.40625 85.5 L-211.40625 85.5" stroke="none" stroke-width="0" fill="#ECECFF"/><path d="M-211.40625 -85.5 C-45.53586772429475 -85.5, 120.3345145514105 -85.5, 211.40625 -85.5 M-211.40625 -85.5 C-42.868032483636625 -85.5, 125.67018503272675 -85.5, 211.40625 -85.5 M211.40625 -85.5 C211.40625 -47.62866313656203, 211.40625 -9.757326273124065, 211.40625 85.5 M211.40625 -85.5 C211.40625 -18.09281397075567, 211.40625 49.31437205848866, 211.40625 85.5 M211.40625 85.5 C78.64160323064502 85.5, -54.123043538709965 85.5, -211.40625 85.5 M211.40625 85.5 C77.73234364293052 85.5, -55.94156271413897 85.5, -211.40625 85.5 M-211.40625 85.5 C-211.40625 23.577706958870152, -211.40625 -38.344586082259696, -211.40625 -85.5 M-211.40625 85.5 C-211.40625 50.69202921054935, -211.40625 15.8840584210987, -211.40625 -85.5" stroke="#9370DB" stroke-width="1.3" fill="none" stroke-dasharray="0 0"/></g><g style="" class="row-rect-odd"><path d="M-211.40625 -42.75 L211.40625 -42.75 L211.40625 0 L-211.40625 0" stroke="none" stroke-width="0" fill="hsl(240, 100%, 100%)"/><path d="M-211.40625 -42.75 C-64.63637557779424 -42.75, 82.13349884441152 -42.75, 211.40625 -42.75 M-211.40625 -42.75 C-117.44648366269205 -42.75, -23.48671732538409 -42.75, 211.40625 -42.75 M211.40625 -42.75 C211.40625 -31.027647498194014, 211.40625 -19.305294996388028, 211.40625 0 M211.40625 -42.75 C211.40625 -26.299544830191273, 211.40625 -9.849089660382546, 211.40625 0 M211.40625 0 C106.75059713798453 0, 2.0949442759690555 0, -211.40625 0 M211.40625 0 C45.89852146190236 0, -119.60920707619528 0, -211.40625 0 M-211.40625 0 C-211.40625 -9.665374799395822, -211.40625 -19.330749598791645, -211.40625 -42.75 M-211.40625 0 C-211.40625 -16.61983825838111, -211.40625 -33.23967651676222, -211.40625 -42.75" stroke="#9370DB" stroke-width="1.3" fill="none" stroke-dasharray="0 0"/></g><g style="" class="row-rect-even"><path d="M-211.40625 0 L211.40625 0 L211.40625 42.75 L-211.40625 42.75" stroke="none" stroke-width="0" fill="hsl(240, 100%, 97.2745098039%)"/><path d="M-211.40625 0 C-106.70503452404554 0, -2.0038190480910885 0, 211.40625 0 M-211.40625 0 C-47.05401926890488 0, 117.29821146219024 0, 211.40625 0 M211.40625 0 C211.40625 9.164502350458642, 211.40625 18.329004700917285, 211.40625 42.75 M211.40625 0 C211.40625 15.898563712773601, 211.40625 31.797127425547203, 211.40625 42.75 M211.40625 42.75 C100.01075988952262 42.75, -11.384730220954765 42.75, -211.40625 42.75 M211.40625 42.75 C82.62036379928432 42.75, -46.16552240143136 42.75, -211.40625 42.75 M-211.40625 42.75 C-211.40625 31.140947994967604, -211.40625 19.531895989935208, -211.40625 0 M-211.40625 42.75 C-211.40625 32.47252706957007, -211.40625 22.195054139140137, -211.40625 0" stroke="#9370DB" stroke-width="1.3" fill="none" stroke-dasharray="0 0"/></g><g style="" class="row-rect-odd"><path d="M-211.40625 42.75 L211.40625 42.75 L211.40625 85.5 L-211.40625 85.5" stroke="none" stroke-width="0" fill="hsl(240, 100%, 100%)"/><path d="M-211.40625 42.75 C-104.06997756905075 42.75, 3.2662948618985013 42.75, 211.40625 42.75 M-211.40625 42.75 C-52.792607390638125 42.75, 105.82103521872375 42.75, 211.40625 42.75 M211.40625 42.75 C211.40625 58.39448262154905, 211.40625 74.0389652430981, 211.40625 85.5 M211.40625 42.75 C211.40625 57.49947112904083, 211.40625 72.24894225808166, 211.40625 85.5 M211.40625 85.5 C50.88163844088433 85.5, -109.64297311823134 85.5, -211.40625 85.5 M211.40625 85.5 C124.25505953974479 85.5, 37.103869079489584 85.5, -211.40625 85.5 M-211.40625 85.5 C-211.40625 69.70304225221031, -211.40625 53.90608450442062, -211.40625 42.75 M-211.40625 85.5 C-211.40625 72.00803249481142, -211.40625 58.51606498962283, -211.40625 42.75" stroke="#9370DB" stroke-width="1.3" fill="none" stroke-dasharray="0 0"/></g><g class="label name" transform="translate(-34.2265625, -76.125)" style=""><foreignObject width="68.453125" height="24"><div xmlns="http://www.w3.org/1999/xhtml" style="display: table-cell; white-space: nowrap; line-height: 1.5; max-width: 163px; text-align: start;"><span class="nodeLabel "><p>SOURCE</p></span></div></foreignObject></g><g class="label attribute-type" transform="translate(-198.90625, -33.375)" style=""><foreignObject width="39.125" height="24"><div xmlns="http://www.w3.org/1999/xhtml" style="display: table-cell; white-space: nowrap; line-height: 1.5; max-width: 136px; text-align: start;"><span class="nodeLabel "><p>string</p></span></div></foreignObject></g><g class="label attribute-name" transform="translate(-134.78125, -33.375)" style=""><foreignObject width="96.953125" height="24"><div xmlns="http://www.w3.org/1999/xhtml" style="display: table-cell; white-space: nowrap; line-height: 1.5; max-width: 197px; text-align: start;"><span class="nodeLabel "><p>source_name</p></span></div></foreignObject></g><g class="label attribute-keys" transform="translate(-6.609375, -33.375)" style=""><foreignObject width="0" height="0"><div xmlns="http://www.w3.org/1999/xhtml" style="display: table-cell; white-space: nowrap; line-height: 1.5; max-width: 100px; text-align: start;"><span class="nodeLabel "></span></div></foreignObject></g><g class="label attribute-comment" transform="translate(-6.609375, -33.375)" style=""><foreignObject width="205.515625" height="24"><div xmlns="http://www.w3.org/1999/xhtml" style="display: table-cell; white-space: nowrap; line-height: 1.5; max-width: 330px; text-align: start;"><span class="nodeLabel "><p>{gas}<em>{sector}</em>{m}m_{lon}_{lat}</p></span></div></foreignObject></g><g class="label attribute-type" transform="translate(-198.90625, 9.375)" style=""><foreignObject width="16.90625" height="24"><div xmlns="http://www.w3.org/1999/xhtml" style="display: table-cell; white-space: nowrap; line-height: 1.5; max-width: 117px; text-align: start;"><span class="nodeLabel "><p>int</p></span></div></foreignObject></g><g class="label attribute-name" transform="translate(-134.78125, 9.375)" style=""><foreignObject width="91.625" height="24"><div xmlns="http://www.w3.org/1999/xhtml" style="display: table-cell; white-space: nowrap; line-height: 1.5; max-width: 184px; text-align: start;"><span class="nodeLabel "><p>plume_count</p></span></div></foreignObject></g><g class="label attribute-keys" transform="translate(-6.609375, 9.375)" style=""><foreignObject width="0" height="0"><div xmlns="http://www.w3.org/1999/xhtml" style="display: table-cell; white-space: nowrap; line-height: 1.5; max-width: 100px; text-align: start;"><span class="nodeLabel "></span></div></foreignObject></g><g class="label attribute-comment" transform="translate(-6.609375, 9.375)" style=""><foreignObject width="122.71875" height="24"><div xmlns="http://www.w3.org/1999/xhtml" style="display: table-cell; white-space: nowrap; line-height: 1.5; max-width: 206px; text-align: start;"><span class="nodeLabel "><p>across all scenes</p></span></div></foreignObject></g><g class="label attribute-type" transform="translate(-198.90625, 52.125)" style=""><foreignObject width="30.25" height="24"><div xmlns="http://www.w3.org/1999/xhtml" style="display: table-cell; white-space: nowrap; line-height: 1.5; max-width: 130px; text-align: start;"><span class="nodeLabel "><p>float</p></span></div></foreignObject></g><g class="label attribute-name" transform="translate(-134.78125, 52.125)" style=""><foreignObject width="103.171875" height="24"><div xmlns="http://www.w3.org/1999/xhtml" style="display: table-cell; white-space: nowrap; line-height: 1.5; max-width: 203px; text-align: start;"><span class="nodeLabel "><p>emission_auto</p></span></div></foreignObject></g><g class="label attribute-keys" transform="translate(-6.609375, 52.125)" style=""><foreignObject width="0" height="0"><div xmlns="http://www.w3.org/1999/xhtml" style="display: table-cell; white-space: nowrap; line-height: 1.5; max-width: 100px; text-align: start;"><span class="nodeLabel "></span></div></foreignObject></g><g class="label attribute-comment" transform="translate(-6.609375, 52.125)" style=""><foreignObject width="102.296875" height="24"><div xmlns="http://www.w3.org/1999/xhtml" style="display: table-cell; white-space: nowrap; line-height: 1.5; max-width: 190px; text-align: start;"><span class="nodeLabel "><p>site-aggregate</p></span></div></foreignObject></g><g class="divider"><path d="M-211.40625 -42.75 C-56.03144123718204 -42.75, 99.34336752563593 -42.75, 211.40625 -42.75 M-211.40625 -42.75 C-118.40309976467155 -42.75, -25.399949529343104 -42.75, 211.40625 -42.75" stroke="#9370DB" stroke-width="1.3" fill="none" stroke-dasharray="0 0"/></g><g class="divider"><path d="M-147.28125 -42.75 C-147.28125 -9.246034453450157, -147.28125 24.257931093099685, -147.28125 85.5 M-147.28125 -42.75 C-147.28125 4.714999231497906, -147.28125 52.17999846299581, -147.28125 85.5" stroke="#9370DB" stroke-width="1.3" fill="none" stroke-dasharray="0 0"/></g><g class="divider"><path d="M-19.109375 -42.75 C-19.109375 -9.03479971939133, -19.109375 24.68040056121734, -19.109375 85.5 M-19.109375 -42.75 C-19.109375 5.2778585668449125, -19.109375 53.305717133689825, -19.109375 85.5" stroke="#9370DB" stroke-width="1.3" fill="none" stroke-dasharray="0 0"/></g><g class="divider"><path d="M-211.40625 -42.75 C-105.57024433327122 -42.75, 0.2657613334575615 -42.75, 211.40625 -42.75 M-211.40625 -42.75 C-121.13464886135013 -42.75, -30.86304772270026 -42.75, 211.40625 -42.75" stroke="#9370DB" stroke-width="1.3" fill="none" stroke-dasharray="0 0"/></g></g><g class="node default " id="entity-PLUME-1" transform="translate(505.46875, 386.875)"><g style=""><path d="M-207.4140625 -106.875 L207.4140625 -106.875 L207.4140625 106.875 L-207.4140625 106.875" stroke="none" stroke-width="0" fill="#ECECFF"/><path d="M-207.4140625 -106.875 C-90.70131212716704 -106.875, 26.011438245665914 -106.875, 207.4140625 -106.875 M-207.4140625 -106.875 C-73.30123731272093 -106.875, 60.81158787455814 -106.875, 207.4140625 -106.875 M207.4140625 -106.875 C207.4140625 -42.724601394974854, 207.4140625 21.42579721005029, 207.4140625 106.875 M207.4140625 -106.875 C207.4140625 -41.78904467505055, 207.4140625 23.296910649898905, 207.4140625 106.875 M207.4140625 106.875 C88.41009635516794 106.875, -30.593869789664126 106.875, -207.4140625 106.875 M207.4140625 106.875 C69.96140926988622 106.875, -67.49124396022756 106.875, -207.4140625 106.875 M-207.4140625 106.875 C-207.4140625 59.74130642089856, -207.4140625 12.60761284179712, -207.4140625 -106.875 M-207.4140625 106.875 C-207.4140625 30.07716079290809, -207.4140625 -46.72067841418382, -207.4140625 -106.875" stroke="#9370DB" stroke-width="1.3" fill="none" stroke-dasharray="0 0"/></g><g style="" class="row-rect-odd"><path d="M-207.4140625 -64.125 L207.4140625 -64.125 L207.4140625 -21.375 L-207.4140625 -21.375" stroke="none" stroke-width="0" fill="hsl(240, 100%, 100%)"/><path d="M-207.4140625 -64.125 C-78.29303646871969 -64.125, 50.82798956256062 -64.125, 207.4140625 -64.125 M-207.4140625 -64.125 C-92.38635977342814 -64.125, 22.64134295314372 -64.125, 207.4140625 -64.125 M207.4140625 -64.125 C207.4140625 -52.579277667194376, 207.4140625 -41.03355533438876, 207.4140625 -21.375 M207.4140625 -64.125 C207.4140625 -50.30402647363793, 207.4140625 -36.483052947275866, 207.4140625 -21.375 M207.4140625 -21.375 C52.23673261898804 -21.375, -102.94059726202391 -21.375, -207.4140625 -21.375 M207.4140625 -21.375 C122.27550689174954 -21.375, 37.13695128349909 -21.375, -207.4140625 -21.375 M-207.4140625 -21.375 C-207.4140625 -30.33791439201378, -207.4140625 -39.30082878402756, -207.4140625 -64.125 M-207.4140625 -21.375 C-207.4140625 -31.874611720841827, -207.4140625 -42.374223441683654, -207.4140625 -64.125" stroke="#9370DB" stroke-width="1.3" fill="none" stroke-dasharray="0 0"/></g><g style="" class="row-rect-even"><path d="M-207.4140625 -21.375 L207.4140625 -21.375 L207.4140625 21.375 L-207.4140625 21.375" stroke="none" stroke-width="0" fill="hsl(240, 100%, 97.2745098039%)"/><path d="M-207.4140625 -21.375 C-66.18764897571239 -21.375, 75.03876454857522 -21.375, 207.4140625 -21.375 M-207.4140625 -21.375 C-108.85872622069283 -21.375, -10.30338994138566 -21.375, 207.4140625 -21.375 M207.4140625 -21.375 C207.4140625 -5.9632375279227325, 207.4140625 9.448524944154535, 207.4140625 21.375 M207.4140625 -21.375 C207.4140625 -12.33778704956112, 207.4140625 -3.3005740991222403, 207.4140625 21.375 M207.4140625 21.375 C103.47144270723824 21.375, -0.47117708552352155 21.375, -207.4140625 21.375 M207.4140625 21.375 C110.50980159829753 21.375, 13.605540696595057 21.375, -207.4140625 21.375 M-207.4140625 21.375 C-207.4140625 6.184282600838925, -207.4140625 -9.00643479832215, -207.4140625 -21.375 M-207.4140625 21.375 C-207.4140625 12.404133468348203, -207.4140625 3.4332669366964055, -207.4140625 -21.375" stroke="#9370DB" stroke-width="1.3" fill="none" stroke-dasharray="0 0"/></g><g style="" class="row-rect-odd"><path d="M-207.4140625 21.375 L207.4140625 21.375 L207.4140625 64.125 L-207.4140625 64.125" stroke="none" stroke-width="0" fill="hsl(240, 100%, 100%)"/><path d="M-207.4140625 21.375 C-49.389592206713274 21.375, 108.63487808657345 21.375, 207.4140625 21.375 M-207.4140625 21.375 C-119.72212705130076 21.375, -32.03019160260152 21.375, 207.4140625 21.375 M207.4140625 21.375 C207.4140625 30.21790445954251, 207.4140625 39.06080891908502, 207.4140625 64.125 M207.4140625 21.375 C207.4140625 29.94806283940502, 207.4140625 38.52112567881004, 207.4140625 64.125 M207.4140625 64.125 C67.92474188950598 64.125, -71.56457872098804 64.125, -207.4140625 64.125 M207.4140625 64.125 C108.0766014505021 64.125, 8.739140401004192 64.125, -207.4140625 64.125 M-207.4140625 64.125 C-207.4140625 49.87372726382364, -207.4140625 35.622454527647285, -207.4140625 21.375 M-207.4140625 64.125 C-207.4140625 49.28727008068127, -207.4140625 34.449540161362535, -207.4140625 21.375" stroke="#9370DB" stroke-width="1.3" fill="none" stroke-dasharray="0 0"/></g><g style="" class="row-rect-even"><path d="M-207.4140625 64.125 L207.4140625 64.125 L207.4140625 106.875 L-207.4140625 106.875" stroke="none" stroke-width="0" fill="hsl(240, 100%, 97.2745098039%)"/><path d="M-207.4140625 64.125 C-81.47999859466266 64.125, 44.45406531067468 64.125, 207.4140625 64.125 M-207.4140625 64.125 C-98.30712453521998 64.125, 10.799813429560032 64.125, 207.4140625 64.125 M207.4140625 64.125 C207.4140625 79.07029225801175, 207.4140625 94.0155845160235, 207.4140625 106.875 M207.4140625 64.125 C207.4140625 78.18771255061668, 207.4140625 92.25042510123336, 207.4140625 106.875 M207.4140625 106.875 C121.19256565899774 106.875, 34.97106881799547 106.875, -207.4140625 106.875 M207.4140625 106.875 C96.86875491734723 106.875, -13.676552665305536 106.875, -207.4140625 106.875 M-207.4140625 106.875 C-207.4140625 92.42883275623396, -207.4140625 77.98266551246792, -207.4140625 64.125 M-207.4140625 106.875 C-207.4140625 91.19605511948347, -207.4140625 75.51711023896696, -207.4140625 64.125" stroke="#9370DB" stroke-width="1.3" fill="none" stroke-dasharray="0 0"/></g><g class="label name" transform="translate(-27.5625, -97.5)" style=""><foreignObject width="55.125" height="24"><div xmlns="http://www.w3.org/1999/xhtml" style="display: table-cell; white-space: nowrap; line-height: 1.5; max-width: 154px; text-align: start;"><span class="nodeLabel "><p>PLUME</p></span></div></foreignObject></g><g class="label attribute-type" transform="translate(-194.9140625, -54.75)" style=""><foreignObject width="39.125" height="24"><div xmlns="http://www.w3.org/1999/xhtml" style="display: table-cell; white-space: nowrap; line-height: 1.5; max-width: 136px; text-align: start;"><span class="nodeLabel "><p>string</p></span></div></foreignObject></g><g class="label attribute-name" transform="translate(-113.8671875, -54.75)" style=""><foreignObject width="64.9375" height="24"><div xmlns="http://www.w3.org/1999/xhtml" style="display: table-cell; white-space: nowrap; line-height: 1.5; max-width: 160px; text-align: start;"><span class="nodeLabel "><p>plume_id</p></span></div></foreignObject></g><g class="label attribute-keys" transform="translate(14.3046875, -54.75)" style=""><foreignObject width="0" height="0"><div xmlns="http://www.w3.org/1999/xhtml" style="display: table-cell; white-space: nowrap; line-height: 1.5; max-width: 100px; text-align: start;"><span class="nodeLabel "></span></div></foreignObject></g><g class="label attribute-comment" transform="translate(14.3046875, -54.75)" style=""><foreignObject width="180.609375" height="24"><div xmlns="http://www.w3.org/1999/xhtml" style="display: table-cell; white-space: nowrap; line-height: 1.5; max-width: 263px; text-align: start;"><span class="nodeLabel "><p>tan20251212t185057...-E</p></span></div></foreignObject></g><g class="label attribute-type" transform="translate(-194.9140625, -12)" style=""><foreignObject width="30.25" height="24"><div xmlns="http://www.w3.org/1999/xhtml" style="display: table-cell; white-space: nowrap; line-height: 1.5; max-width: 130px; text-align: start;"><span class="nodeLabel "><p>float</p></span></div></foreignObject></g><g class="label attribute-name" transform="translate(-113.8671875, -12)" style=""><foreignObject width="103.171875" height="24"><div xmlns="http://www.w3.org/1999/xhtml" style="display: table-cell; white-space: nowrap; line-height: 1.5; max-width: 203px; text-align: start;"><span class="nodeLabel "><p>emission_auto</p></span></div></foreignObject></g><g class="label attribute-keys" transform="translate(14.3046875, -12)" style=""><foreignObject width="0" height="0"><div xmlns="http://www.w3.org/1999/xhtml" style="display: table-cell; white-space: nowrap; line-height: 1.5; max-width: 100px; text-align: start;"><span class="nodeLabel "></span></div></foreignObject></g><g class="label attribute-comment" transform="translate(14.3046875, -12)" style=""><foreignObject width="30.25" height="24"><div xmlns="http://www.w3.org/1999/xhtml" style="display: table-cell; white-space: nowrap; line-height: 1.5; max-width: 128px; text-align: start;"><span class="nodeLabel "><p>kg/h</p></span></div></foreignObject></g><g class="label attribute-type" transform="translate(-194.9140625, 30.75)" style=""><foreignObject width="56.046875" height="24"><div xmlns="http://www.w3.org/1999/xhtml" style="display: table-cell; white-space: nowrap; line-height: 1.5; max-width: 152px; text-align: start;"><span class="nodeLabel "><p>polygon</p></span></div></foreignObject></g><g class="label attribute-name" transform="translate(-113.8671875, 30.75)" style=""><foreignObject width="66.703125" height="24"><div xmlns="http://www.w3.org/1999/xhtml" style="display: table-cell; white-space: nowrap; line-height: 1.5; max-width: 160px; text-align: start;"><span class="nodeLabel "><p>geometry</p></span></div></foreignObject></g><g class="label attribute-keys" transform="translate(14.3046875, 30.75)" style=""><foreignObject width="0" height="0"><div xmlns="http://www.w3.org/1999/xhtml" style="display: table-cell; white-space: nowrap; line-height: 1.5; max-width: 100px; text-align: start;"><span class="nodeLabel "></span></div></foreignObject></g><g class="label attribute-comment" transform="translate(14.3046875, 30.75)" style=""><foreignObject width="0" height="0"><div xmlns="http://www.w3.org/1999/xhtml" style="display: table-cell; white-space: nowrap; line-height: 1.5; max-width: 100px; text-align: start;"><span class="nodeLabel "></span></div></foreignObject></g><g class="label attribute-type" transform="translate(-194.9140625, 73.5)" style=""><foreignObject width="30.25" height="24"><div xmlns="http://www.w3.org/1999/xhtml" style="display: table-cell; white-space: nowrap; line-height: 1.5; max-width: 130px; text-align: start;"><span class="nodeLabel "><p>float</p></span></div></foreignObject></g><g class="label attribute-name" transform="translate(-113.8671875, 73.5)" style=""><foreignObject width="67.609375" height="24"><div xmlns="http://www.w3.org/1999/xhtml" style="display: table-cell; white-space: nowrap; line-height: 1.5; max-width: 169px; text-align: start;"><span class="nodeLabel "><p>wind_u_v</p></span></div></foreignObject></g><g class="label attribute-keys" transform="translate(14.3046875, 73.5)" style=""><foreignObject width="0" height="0"><div xmlns="http://www.w3.org/1999/xhtml" style="display: table-cell; white-space: nowrap; line-height: 1.5; max-width: 100px; text-align: start;"><span class="nodeLabel "></span></div></foreignObject></g><g class="label attribute-comment" transform="translate(14.3046875, 73.5)" style=""><foreignObject width="122.6875" height="24"><div xmlns="http://www.w3.org/1999/xhtml" style="display: table-cell; white-space: nowrap; line-height: 1.5; max-width: 215px; text-align: start;"><span class="nodeLabel "><p>from CM forecast</p></span></div></foreignObject></g><g class="divider"><path d="M-207.4140625 -64.125 C-87.8120464927385 -64.125, 31.789969514522994 -64.125, 207.4140625 -64.125 M-207.4140625 -64.125 C-85.79339544021862 -64.125, 35.827271619562765 -64.125, 207.4140625 -64.125" stroke="#9370DB" stroke-width="1.3" fill="none" stroke-dasharray="0 0"/></g><g class="divider"><path d="M-126.3671875 -64.125 C-126.3671875 -8.434716039672878, -126.3671875 47.255567920654244, -126.3671875 106.875 M-126.3671875 -64.125 C-126.3671875 -13.845850787905675, -126.3671875 36.43329842418865, -126.3671875 106.875" stroke="#9370DB" stroke-width="1.3" fill="none" stroke-dasharray="0 0"/></g><g class="divider"><path d="M1.8046875 -64.125 C1.8046875 -26.2540966180461, 1.8046875 11.616806763907803, 1.8046875 106.875 M1.8046875 -64.125 C1.8046875 -8.171424576147224, 1.8046875 47.78215084770555, 1.8046875 106.875" stroke="#9370DB" stroke-width="1.3" fill="none" stroke-dasharray="0 0"/></g><g class="divider"><path d="M-207.4140625 -64.125 C-68.1981976304657 -64.125, 71.0176672390686 -64.125, 207.4140625 -64.125 M-207.4140625 -64.125 C-110.09662667901534 -64.125, -12.779190858030688 -64.125, 207.4140625 -64.125" stroke="#9370DB" stroke-width="1.3" fill="none" stroke-dasharray="0 0"/></g></g><g class="node default " id="entity-TILE-2" transform="translate(791.53125, 93.5)"><g style=""><path d="M-220.71875 -85.5 L220.71875 -85.5 L220.71875 85.5 L-220.71875 85.5" stroke="none" stroke-width="0" fill="#ECECFF"/><path d="M-220.71875 -85.5 C-57.53624330354623 -85.5, 105.64626339290754 -85.5, 220.71875 -85.5 M-220.71875 -85.5 C-86.61100328658728 -85.5, 47.49674342682545 -85.5, 220.71875 -85.5 M220.71875 -85.5 C220.71875 -38.90798610475783, 220.71875 7.684027790484336, 220.71875 85.5 M220.71875 -85.5 C220.71875 -27.147440105810944, 220.71875 31.205119788378113, 220.71875 85.5 M220.71875 85.5 C91.4795986429009 85.5, -37.75955271419821 85.5, -220.71875 85.5 M220.71875 85.5 C52.32449570141415 85.5, -116.0697585971717 85.5, -220.71875 85.5 M-220.71875 85.5 C-220.71875 19.852535033114663, -220.71875 -45.794929933770675, -220.71875 -85.5 M-220.71875 85.5 C-220.71875 49.68264958803012, -220.71875 13.865299176060233, -220.71875 -85.5" stroke="#9370DB" stroke-width="1.3" fill="none" stroke-dasharray="0 0"/></g><g style="" class="row-rect-odd"><path d="M-220.71875 -42.75 L220.71875 -42.75 L220.71875 0 L-220.71875 0" stroke="none" stroke-width="0" fill="hsl(240, 100%, 100%)"/><path d="M-220.71875 -42.75 C-112.34302799898906 -42.75, -3.967305997978116 -42.75, 220.71875 -42.75 M-220.71875 -42.75 C-93.39512601831068 -42.75, 33.928497963378646 -42.75, 220.71875 -42.75 M220.71875 -42.75 C220.71875 -32.13314356563925, 220.71875 -21.516287131278503, 220.71875 0 M220.71875 -42.75 C220.71875 -32.85377421726153, 220.71875 -22.957548434523055, 220.71875 0 M220.71875 0 C112.08711264582881 0, 3.4554752916576206 0, -220.71875 0 M220.71875 0 C84.17767046227024 0, -52.363409075459515 0, -220.71875 0 M-220.71875 0 C-220.71875 -15.12879844716286, -220.71875 -30.25759689432572, -220.71875 -42.75 M-220.71875 0 C-220.71875 -15.336800118740236, -220.71875 -30.67360023748047, -220.71875 -42.75" stroke="#9370DB" stroke-width="1.3" fill="none" stroke-dasharray="0 0"/></g><g style="" class="row-rect-even"><path d="M-220.71875 0 L220.71875 0 L220.71875 42.75 L-220.71875 42.75" stroke="none" stroke-width="0" fill="hsl(240, 100%, 97.2745098039%)"/><path d="M-220.71875 0 C-70.4763405720027 0, 79.7660688559946 0, 220.71875 0 M-220.71875 0 C-129.54093627512592 0, -38.36312255025183 0, 220.71875 0 M220.71875 0 C220.71875 12.087981338665884, 220.71875 24.175962677331768, 220.71875 42.75 M220.71875 0 C220.71875 15.094030542000123, 220.71875 30.188061084000246, 220.71875 42.75 M220.71875 42.75 C95.96483971290962 42.75, -28.789070574180755 42.75, -220.71875 42.75 M220.71875 42.75 C88.89235064342446 42.75, -42.93404871315107 42.75, -220.71875 42.75 M-220.71875 42.75 C-220.71875 30.90849214471509, -220.71875 19.066984289430184, -220.71875 0 M-220.71875 42.75 C-220.71875 26.431684603013366, -220.71875 10.113369206026732, -220.71875 0" stroke="#9370DB" stroke-width="1.3" fill="none" stroke-dasharray="0 0"/></g><g style="" class="row-rect-odd"><path d="M-220.71875 42.75 L220.71875 42.75 L220.71875 85.5 L-220.71875 85.5" stroke="none" stroke-width="0" fill="hsl(240, 100%, 100%)"/><path d="M-220.71875 42.75 C-91.06373503875574 42.75, 38.591279922488525 42.75, 220.71875 42.75 M-220.71875 42.75 C-105.71451209298344 42.75, 9.289725814033119 42.75, 220.71875 42.75 M220.71875 42.75 C220.71875 57.485440789551184, 220.71875 72.22088157910237, 220.71875 85.5 M220.71875 42.75 C220.71875 51.38574325774755, 220.71875 60.021486515495106, 220.71875 85.5 M220.71875 85.5 C96.17181087241356 85.5, -28.375128255172882 85.5, -220.71875 85.5 M220.71875 85.5 C96.58553543163914 85.5, -27.54767913672171 85.5, -220.71875 85.5 M-220.71875 85.5 C-220.71875 68.89943318023383, -220.71875 52.29886636046766, -220.71875 42.75 M-220.71875 85.5 C-220.71875 69.15890948173892, -220.71875 52.81781896347783, -220.71875 42.75" stroke="#9370DB" stroke-width="1.3" fill="none" stroke-dasharray="0 0"/></g><g class="label name" transform="translate(-16.8984375, -76.125)" style=""><foreignObject width="33.796875" height="24"><div xmlns="http://www.w3.org/1999/xhtml" style="display: table-cell; white-space: nowrap; line-height: 1.5; max-width: 135px; text-align: start;"><span class="nodeLabel "><p>TILE</p></span></div></foreignObject></g><g class="label attribute-type" transform="translate(-208.21875, -33.375)" style=""><foreignObject width="39.125" height="24"><div xmlns="http://www.w3.org/1999/xhtml" style="display: table-cell; white-space: nowrap; line-height: 1.5; max-width: 136px; text-align: start;"><span class="nodeLabel "><p>string</p></span></div></foreignObject></g><g class="label attribute-name" transform="translate(-121.84375, -33.375)" style=""><foreignObject width="64.046875" height="24"><div xmlns="http://www.w3.org/1999/xhtml" style="display: table-cell; white-space: nowrap; line-height: 1.5; max-width: 164px; text-align: start;"><span class="nodeLabel "><p>scene_id</p></span></div></foreignObject></g><g class="label attribute-keys" transform="translate(-32.796875, -33.375)" style=""><foreignObject width="0" height="0"><div xmlns="http://www.w3.org/1999/xhtml" style="display: table-cell; white-space: nowrap; line-height: 1.5; max-width: 100px; text-align: start;"><span class="nodeLabel "></span></div></foreignObject></g><g class="label attribute-comment" transform="translate(-32.796875, -33.375)" style=""><foreignObject width="156.390625" height="24"><div xmlns="http://www.w3.org/1999/xhtml" style="display: table-cell; white-space: nowrap; line-height: 1.5; max-width: 250px; text-align: start;"><span class="nodeLabel "><p>plume_id.rsplit('-',1)[0]</p></span></div></foreignObject></g><g class="label attribute-type" transform="translate(-208.21875, 9.375)" style=""><foreignObject width="39.125" height="24"><div xmlns="http://www.w3.org/1999/xhtml" style="display: table-cell; white-space: nowrap; line-height: 1.5; max-width: 136px; text-align: start;"><span class="nodeLabel "><p>string</p></span></div></foreignObject></g><g class="label attribute-name" transform="translate(-121.84375, 9.375)" style=""><foreignObject width="57.796875" height="24"><div xmlns="http://www.w3.org/1999/xhtml" style="display: table-cell; white-space: nowrap; line-height: 1.5; max-width: 156px; text-align: start;"><span class="nodeLabel "><p>platform</p></span></div></foreignObject></g><g class="label attribute-keys" transform="translate(-32.796875, 9.375)" style=""><foreignObject width="0" height="0"><div xmlns="http://www.w3.org/1999/xhtml" style="display: table-cell; white-space: nowrap; line-height: 1.5; max-width: 100px; text-align: start;"><span class="nodeLabel "></span></div></foreignObject></g><g class="label attribute-comment" transform="translate(-32.796875, 9.375)" style=""><foreignObject width="180.5625" height="24"><div xmlns="http://www.w3.org/1999/xhtml" style="display: table-cell; white-space: nowrap; line-height: 1.5; max-width: 263px; text-align: start;"><span class="nodeLabel "><p>tan / emi / ang / av3 / gao</p></span></div></foreignObject></g><g class="label attribute-type" transform="translate(-208.21875, 52.125)" style=""><foreignObject width="61.375" height="24"><div xmlns="http://www.w3.org/1999/xhtml" style="display: table-cell; white-space: nowrap; line-height: 1.5; max-width: 155px; text-align: start;"><span class="nodeLabel "><p>datetime</p></span></div></foreignObject></g><g class="label attribute-name" transform="translate(-121.84375, 52.125)" style=""><foreignObject width="61.375" height="24"><div xmlns="http://www.w3.org/1999/xhtml" style="display: table-cell; white-space: nowrap; line-height: 1.5; max-width: 155px; text-align: start;"><span class="nodeLabel "><p>acquired</p></span></div></foreignObject></g><g class="label attribute-keys" transform="translate(-32.796875, 52.125)" style=""><foreignObject width="0" height="0"><div xmlns="http://www.w3.org/1999/xhtml" style="display: table-cell; white-space: nowrap; line-height: 1.5; max-width: 100px; text-align: start;"><span class="nodeLabel "></span></div></foreignObject></g><g class="label attribute-comment" transform="translate(-32.796875, 52.125)" style=""><foreignObject width="241.015625" height="24"><div xmlns="http://www.w3.org/1999/xhtml" style="display: table-cell; white-space: nowrap; line-height: 1.5; max-width: 326px; text-align: start;"><span class="nodeLabel "><p>L2B GeoTIFF, may lag publication</p></span></div></foreignObject></g><g class="divider"><path d="M-220.71875 -42.75 C-53.16420647167163 -42.75, 114.39033705665673 -42.75, 220.71875 -42.75 M-220.71875 -42.75 C-70.0845306528172 -42.75, 80.54968869436561 -42.75, 220.71875 -42.75" stroke="#9370DB" stroke-width="1.3" fill="none" stroke-dasharray="0 0"/></g><g class="divider"><path d="M-134.34375 -42.75 C-134.34375 -1.040844525911588, -134.34375 40.668310948176824, -134.34375 85.5 M-134.34375 -42.75 C-134.34375 -2.1544398693682894, -134.34375 38.44112026126342, -134.34375 85.5" stroke="#9370DB" stroke-width="1.3" fill="none" stroke-dasharray="0 0"/></g><g class="divider"><path d="M-45.296875 -42.75 C-45.296875 1.2990211255870534, -45.296875 45.34804225117411, -45.296875 85.5 M-45.296875 -42.75 C-45.296875 0.49538464862710185, -45.296875 43.740769297254204, -45.296875 85.5" stroke="#9370DB" stroke-width="1.3" fill="none" stroke-dasharray="0 0"/></g><g class="divider"><path d="M-220.71875 -42.75 C-106.25916002872265 -42.75, 8.200429942554706 -42.75, 220.71875 -42.75 M-220.71875 -42.75 C-120.47308591940516 -42.75, -20.22742183881033 -42.75, 220.71875 -42.75" stroke="#9370DB" stroke-width="1.3" fill="none" stroke-dasharray="0 0"/></g></g></g></g></g></svg>